<svg xmlns="http://www.w3.org/2000/svg" xmlns:xlink="http://www.w3.org/1999/xlink" width="24" height="24" viewBox="0 0 24 24">
    <defs>
        <path id="a" d="M0 0h24v24H0z"/>
    </defs>
    <g fill="none" fill-rule="evenodd">
        <mask id="b" fill="#fff">
            <use xlink:href="#a"/>
        </mask>
        <path fill="#D95055" d="M12 0c6.627 0 12 5.373 12 12 0 6.628-5.373 12-12 12-6.628 0-12-5.372-12-12C0 5.373 5.372 0 12 0zm-.763 3.339c-.167 1.082-.546 2.055-1.104 2.979-.905 1.498-2.082 2.818-2.986 4.315-.48.796-.972 1.605-1.073 2.562-.371.98-.38 1.976-.227 3.005.185 1.235.704 2.294 1.62 3.13 1.555 1.416 3.469 1.8 5.517 1.634a5.16 5.16 0 0 0 2.132-.65c2.382-1.364 3.16-4.148 2.515-6.453-.536-1.913-1.797-3.038-3.702-2.88-.613.052-1.532.434-1.805.817 1.25.35 2.133 1.111 2.616 2.307.496 1.224.431 2.451.009 3.683-.434 1.262-2.128 2.366-3.316 2.14-2.063-.39-3.546-2.817-2.977-4.822.68-2.399 2.52-3.973 4.002-5.924.778-1.025 1.38-2.127 1.319-3.461-.034-.751-.268-1.458-.642-2.104-.537-.93-1.21-1.761-2.074-2.595.175.853.294 1.555.176 2.317zm4.344 6.239c.8.972 1.984 1.661 2.372 2.973l.003-.144v-.008a.806.806 0 0 0-.004-.082c-.137-1.293-.75-2.361-1.567-3.36-.543-.662-1.168-1.315-1.115-2.292-.749 1.058-.344 2.117.311 2.913zm-9.758.75c-.537 1.082-.82 2.202-.823 3.367v.034c0 .303.02.61.06.919.102-1.22.504-2.34 1.011-3.437.45-.972.78-1.974.357-3.055.025.786-.269 1.493-.605 2.171zm6.01 8.35c-.34.08-.728.013-1.03.25 1.086.641 2.433-.02 2.939-.72.427-.592.36-1.46-.172-1.841.11 1.066-.458 2.008-1.736 2.31zM7.839 8.379c.516-.31.793-.712 1.064-1.18.47-.813.06-1.447-1.128-1.757.695.955.424 1.927.064 2.937zm4.844 1.992c.46-.56 1.104-.943 1.166-1.708.535 1.038.316 1.243-1.166 1.708z" mask="url(#b)"/>
    </g>
</svg>
