<svg xmlns="http://www.w3.org/2000/svg" width="20" height="20" viewBox="0 0 20 20">
    <g fill="none" fill-rule="evenodd">
        <path d="M-1-1h22v22H-1z" opacity=".117"/>
        <path fill="#595D72" d="M10 13c-1.65 0-3-1.351-3-3 0-1.65 1.35-3 3-3s3 1.35 3 3c0 1.649-1.35 3-3 3zm7.65-2.025c.039-.313.064-.637.064-.975 0-.338-.025-.662-.077-.975l2.173-1.65a.507.507 0 0 0 .129-.638l-2.057-3.462c-.129-.225-.399-.3-.63-.225l-2.559 1a7.588 7.588 0 0 0-1.736-.975l-.386-2.65A.51.51 0 0 0 12.057 0H7.943a.496.496 0 0 0-.502.425l-.385 2.65c-.63.25-1.209.587-1.736.975l-2.559-1a.515.515 0 0 0-.63.225L.074 6.737a.476.476 0 0 0 .129.638l2.173 1.65c-.052.313-.09.65-.09.975 0 .325.025.662.077.975L.19 12.625a.507.507 0 0 0-.129.637l2.057 3.463a.53.53 0 0 0 .63.225l2.559-1c.54.4 1.106.725 1.736.975l.386 2.65c.05.25.257.425.514.425h4.114c.257 0 .476-.175.502-.425l.385-2.65a7.791 7.791 0 0 0 1.736-.975l2.559 1c.231.088.501 0 .63-.225l2.057-3.463a.476.476 0 0 0-.129-.637l-2.147-1.65z"/>
    </g>
</svg>
