<svg xmlns="http://www.w3.org/2000/svg" width="20" height="14" viewBox="0 0 20 14">
    <g fill="none" fill-rule="evenodd" stroke="#ACACCC" opacity=".496">
        <path d="M.572 7l.028.048a16.673 16.673 0 0 0 2.371 3.103C5.018 12.251 7.37 13.5 10 13.5s4.983-1.25 7.028-3.349A16.673 16.673 0 0 0 19.428 7a14.678 14.678 0 0 0-.51-.815 16.673 16.673 0 0 0-1.89-2.336C14.983 1.749 12.63.5 10 .5S5.017 1.75 2.972 3.849A16.673 16.673 0 0 0 .572 7z"/>
        <circle cx="10" cy="7" r="2.5"/>
    </g>
</svg>
