<?xml version="1.0" encoding="UTF-8"?>
<svg width="19px" height="19px" viewBox="0 0 19 19" version="1.1" xmlns="http://www.w3.org/2000/svg" xmlns:xlink="http://www.w3.org/1999/xlink">
    <!-- Generator: Sketch 46.1 (44463) - http://www.bohemiancoding.com/sketch -->
    <title>Group 13</title>
    <desc>Created with Sketch.</desc>
    <defs></defs>
    <g id="Page-1" stroke="none" stroke-width="1" fill="none" fill-rule="evenodd">
        <g id="Up_UI_f_download" transform="translate(-328.000000, -242.000000)" fill="#FFFFFF">
            <g id="Group-13" transform="translate(329.000000, 243.000000)">
                <path d="M8.5,17.5 C3.52943725,17.5 -0.5,13.4705627 -0.5,8.5 C-0.5,3.52943725 3.52943725,-0.5 8.5,-0.5 C13.4705627,-0.5 17.5,3.52943725 17.5,8.5 C17.5,13.4705627 13.4705627,17.5 8.5,17.5 Z M8.5,16.5 C12.918278,16.5 16.5,12.918278 16.5,8.5 C16.5,4.081722 12.918278,0.5 8.5,0.5 C4.081722,0.5 0.5,4.081722 0.5,8.5 C0.5,12.918278 4.081722,16.5 8.5,16.5 Z" id="Oval" fill-rule="nonzero"></path>
                <path d="M8.38798701,5.01799486 C8.38798701,4.6825176 8.46509663,4.42898543 8.61931818,4.25739075 C8.77353973,4.08579606 8.9918817,4 9.27435065,4 C9.51136482,4 9.69155782,4.05976804 9.81493506,4.17930591 C9.93831231,4.29884379 10,4.4704359 10,4.6940874 C10,5.00257224 9.92857214,5.2522484 9.78571429,5.44312339 C9.64285643,5.63399838 9.42207942,5.72943445 9.12337662,5.72943445 C8.63311443,5.72943445 8.38798701,5.49229029 8.38798701,5.01799486 Z M8.46590909,13 L7,13 L8.15422078,6.53341902 L9.62012987,6.53341902 L8.46590909,13 Z" id="i"></path>
            </g>
        </g>
    </g>
</svg>