<?xml version="1.0" encoding="UTF-8"?>
<svg width="70px" height="56px" viewBox="0 0 70 56" version="1.1" xmlns="http://www.w3.org/2000/svg" xmlns:xlink="http://www.w3.org/1999/xlink">
    <!-- Generator: Sketch 49.3 (51167) - http://www.bohemiancoding.com/sketch -->
    <title>Warning-02</title>
    <desc>Created with Sketch.</desc>
    <defs></defs>
    <g id="Page-1" stroke="none" stroke-width="1" fill="none" fill-rule="evenodd">
        <g id="Up_UI_f_Wallet" transform="translate(-706.000000, -299.000000)">
            <g id="Warning-Popup" transform="translate(0.000000, 55.000000)">
                <g id="PopUP" transform="translate(465.000000, 206.000000)">
                    <g id="Warning-02" transform="translate(242.000000, 39.000000)">
                        <g id="Group" stroke="#EF674C" stroke-width="2">
                            <path d="M7.65,53.1147541 C4.44193548,53.1147541 2.02903226,52.1731744 0.85,50.3865872 C-0.329032258,48.6 -0.0822580645,46.3064083 1.53548387,43.8438152 L27.8580645,3.98360656 C29.4758065,1.54515648 31.6693548,0.19314456 34.0274194,0.19314456 C36.3854839,0.19314456 38.5790323,1.54515648 40.1967742,3.98360656 L66.5193548,43.8438152 C68.1370968,46.2822653 68.383871,48.5758569 67.2048387,50.3624441 C66.0258065,52.1490313 63.6129032,53.090611 60.4048387,53.090611 L7.65,53.090611 L7.65,53.1147541 Z" id="Shape"></path>
                        </g>
                        <path d="M33.5638298,37.9168975 C35.7978723,37.9168975 37.4893617,39.2382271 37.4893617,40.9584488 C37.4893617,42.6537396 35.7978723,44 33.5638298,44 C31.4255319,44 29.6702128,42.6786704 29.6702128,40.9584488 C29.6702128,39.2382271 31.4255319,37.9168975 33.5638298,37.9168975 Z M36.8829787,32.8559557 C36.8829787,34.6509695 35.7978723,35.5235457 33.4680851,35.5235457 C31.2978723,35.5235457 30.1808511,34.6759003 30.1808511,32.8559557 L29,20.4404432 C29,18.5706371 31.2021277,17 33.4680851,17 C35.7340426,17 38,18.5706371 38,20.4404432 L36.8829787,32.8559557 Z" id="Shape" fill="#EF674C" fill-rule="nonzero"></path>
                    </g>
                </g>
            </g>
        </g>
    </g>
</svg>